# xmcd
#
# Track frame offsets:
#	150
#	20008
#	36148
#	53150
#	72053
#	90120
#	105561
#	121086
#	140513
#	157223
#	174832
#	191331
#	206993
#
# Disc length: 2988 seconds
#
# Revision: 5
# Processed by: cddbd v1.5.2PL0 Copyright (c) Steve Scherf et al.
# Submitted via: EasyCDDAExtractor 12.0.1.1
#
DISCID=a80baa0d
DTITLE=Franek Kimono
DYEAR=2008
DGENRE=Disco
TTITLE0=Pola Monola and Coca Cola
TTITLE1=Tankowanie noca
TTITLE2=Sound ciezkie brzmienie
TTITLE3=Ja jestem menago
TTITLE4=Dysk dzokej
TTITLE5=Jednoreki bandyta
TTITLE6=Królowa dysko
TTITLE7=Marynara lu-bu-du-bu
TTITLE8=King Bruce Lee karate mistrz
TTITLE9=Dysko story
TTITLE10=Gimnastyka
TTITLE11=Sweet kimono
TTITLE12=I Love You Too
EXTD=POLISH DISCO YEAR: 1985
EXTT0=
EXTT1=
EXTT2=
EXTT3=
EXTT4=
EXTT5=
EXTT6=
EXTT7=
EXTT8=
EXTT9=
EXTT10=
EXTT11=
EXTT12=
PLAYORDER=
